<svg width="24" height="19" viewBox="0 0 24 19" fill="none" xmlns="http://www.w3.org/2000/svg">
<path fill-rule="evenodd" clip-rule="evenodd" d="M23.25 9.625C23.248 7.59744 22.0808 5.75154 20.25 4.88031V4.75C20.2482 2.76581 18.9471 1.01696 17.0471 0.445025C15.1471 -0.126909 13.0968 0.613073 12 2.26656C10.9032 0.613073 8.85286 -0.126909 6.95289 0.445025C5.05292 1.01696 3.75178 2.76581 3.75 4.75V4.88031C1.91746 5.74923 0.749297 7.59595 0.749297 9.62406C0.749297 11.6522 1.91746 13.4989 3.75 14.3678V14.5C3.75178 16.4842 5.05292 18.233 6.95289 18.805C8.85286 19.3769 10.9032 18.6369 12 16.9834C13.0968 18.6369 15.1471 19.3769 17.0471 18.805C18.9471 18.233 20.2482 16.4842 20.25 14.5V14.3678C22.0805 13.4972 23.2477 11.652 23.25 9.625ZM8.25 17.5C6.71813 17.4998 5.43249 16.3455 5.26781 14.8225C5.51035 14.8571 5.75501 14.8746 6 14.875H6.75C7.16421 14.875 7.5 14.5392 7.5 14.125C7.5 13.7108 7.16421 13.375 6.75 13.375H6C4.17185 13.3771 2.60857 12.0607 2.29957 10.2588C1.99057 8.45699 3.0259 6.69491 4.75031 6.08781C5.04977 5.98179 5.24995 5.69861 5.25 5.38094V4.75C5.25 3.09315 6.59315 1.75 8.25 1.75C9.90685 1.75 11.25 3.09315 11.25 4.75V11.1494C10.4264 10.4086 9.35768 9.99918 8.25 10C7.83579 10 7.5 10.3358 7.5 10.75C7.5 11.1642 7.83579 11.5 8.25 11.5C9.90685 11.5 11.25 12.8431 11.25 14.5C11.25 16.1569 9.90685 17.5 8.25 17.5ZM18 13.375H17.25C16.8358 13.375 16.5 13.7108 16.5 14.125C16.5 14.5392 16.8358 14.875 17.25 14.875H18C18.245 14.8746 18.4897 14.8571 18.7322 14.8225C18.5586 16.4281 17.145 17.6082 15.5342 17.4923C13.9234 17.3763 12.6934 16.006 12.7515 14.392C12.8096 12.7781 14.135 11.4998 15.75 11.5C16.1642 11.5 16.5 11.1642 16.5 10.75C16.5 10.3358 16.1642 10 15.75 10C14.6423 9.99918 13.5736 10.4086 12.75 11.1494V4.75C12.75 3.09315 14.0931 1.75 15.75 1.75C17.4069 1.75 18.75 3.09315 18.75 4.75V5.38094C18.7501 5.69861 18.9502 5.98179 19.2497 6.08781C20.9741 6.69491 22.0094 8.45699 21.7004 10.2588C21.3914 12.0607 19.8282 13.3771 18 13.375ZM19.5 8.5C19.5 8.91421 19.1642 9.25 18.75 9.25H18.375C16.511 9.25 15 7.73896 15 5.875V5.5C15 5.08579 15.3358 4.75 15.75 4.75C16.1642 4.75 16.5 5.08579 16.5 5.5V5.875C16.5 6.91053 17.3395 7.75 18.375 7.75H18.75C19.1642 7.75 19.5 8.08579 19.5 8.5ZM5.625 9.25H5.25C4.83579 9.25 4.5 8.91421 4.5 8.5C4.5 8.08579 4.83579 7.75 5.25 7.75H5.625C6.66053 7.75 7.5 6.91053 7.5 5.875V5.5C7.5 5.08579 7.83579 4.75 8.25 4.75C8.66421 4.75 9 5.08579 9 5.5V5.875C9 7.73896 7.48896 9.25 5.625 9.25Z" fill="#171212"/>
</svg>
